<svg width="184" height="48" viewBox="0 0 184 48" fill="none" xmlns="http://www.w3.org/2000/svg">
<path d="M67.61 10.08C71.83 10.08 74.71 10.75 76.56 12.73C77.1502 13.3401 77.6119 14.0626 77.9177 14.8545C78.2234 15.6464 78.3671 16.4915 78.34 17.34C78.34 19.55 77.43 21.72 74.51 23.34C77.71 24.48 79.76 26.57 79.76 30.08C79.8221 32.0717 79.1046 34.0092 77.76 35.48C75.76 37.61 72.76 38.48 68.25 38.48H62.41C60.88 38.48 60.64 38.4 60.64 37.89V10.6801C60.64 10.1601 60.88 10.08 62.41 10.08H67.61ZM66.39 21.72H67.81C69.1331 21.8321 70.451 21.4511 71.51 20.65C71.8676 20.3127 72.1483 19.9022 72.3329 19.4467C72.5176 18.9911 72.6019 18.5011 72.58 18.01C72.6202 17.1545 72.322 16.3175 71.75 15.6801C71 14.9401 69.82 14.62 67.81 14.62H66.39V21.72ZM66.39 33.98H68.39C70.28 33.98 71.78 33.79 72.89 32.84C73.5643 32.0804 73.9523 31.1093 73.987 30.0942C74.0217 29.0791 73.7009 28.0838 73.08 27.28C72.14 26.28 70.8 26.0601 68.35 26.0601H66.42L66.39 33.98Z" fill="#17358A"/>
<path d="M94.9999 18.17C94.9999 17.81 95.2 17.66 97.33 17.66H97.5599C99.5599 17.66 99.8499 17.7699 99.8499 18.2099C99.8499 19.5099 99.77 23.49 99.77 26.73V29.13C99.77 32.21 99.8899 35.64 100.05 37.77C100.05 38.32 100.05 38.48 97.7999 38.48H97.5999C95.6699 38.48 95.35 38.3999 95.2 37.9699C95.064 37.5332 94.9702 37.0846 94.9199 36.63C94.2119 37.3409 93.3704 37.9047 92.4436 38.2892C91.5169 38.6736 90.5233 38.871 89.52 38.87C84.35 38.87 81.1599 34.9299 81.1599 28.4599C81.1599 21.2799 85.1599 17.26 89.8699 17.26C90.8265 17.2369 91.7755 17.4352 92.6428 17.8393C93.5101 18.2435 94.2724 18.8426 94.8699 19.5899L94.9999 18.17ZM94.3699 23.85C93.9991 23.2927 93.4989 22.8333 92.912 22.5112C92.3252 22.1891 91.6692 22.0137 90.9999 22C88.1199 22 86.78 24.29 86.78 28.35C86.78 31.86 87.7199 34.35 90.9199 34.35C91.4764 34.3819 92.0332 34.2919 92.5514 34.0864C93.0696 33.8809 93.5366 33.5647 93.9199 33.16C94.3481 32.5106 94.5421 31.7345 94.4699 30.9599L94.3699 23.85Z" fill="#17358A"/>
<path d="M105.11 17.66C107.04 17.66 107.39 17.74 107.51 18.17C107.766 19.5099 107.923 20.8669 107.98 22.23C109.25 19 110.9 17.23 113.43 17.23C113.771 17.2172 114.11 17.2716 114.43 17.39C114.71 17.51 114.79 17.59 114.79 19.39V19.9399C114.79 21.9399 114.67 22.0299 114.23 22.0699C113.303 22.1128 112.399 22.3789 111.597 22.8454C110.794 23.312 110.116 23.9654 109.62 24.75C108.62 26.25 108.16 28.4999 108.16 32.2099V37.89C108.16 38.32 107.92 38.48 105.6 38.48H105.4C102.84 38.48 102.76 38.32 102.76 37.89V27C102.76 23.93 102.64 20.5 102.48 18.37C102.48 17.81 102.6 17.66 104.85 17.66H105.11Z" fill="#17358A"/>
<path d="M118.9 8.00002C119.537 8.01576 120.156 8.21904 120.678 8.58449C121.2 8.94994 121.603 9.46134 121.836 10.0546C122.069 10.6478 122.122 11.2966 121.988 11.9197C121.854 12.5428 121.539 13.1127 121.083 13.5579C120.627 14.003 120.049 14.3037 119.423 14.4224C118.797 14.541 118.15 14.4724 117.562 14.225C116.975 13.9776 116.474 13.5625 116.121 13.0315C115.768 12.5006 115.58 11.8774 115.58 11.24C115.584 10.8089 115.673 10.3828 115.842 9.98622C116.012 9.58967 116.257 9.23047 116.566 8.92934C116.875 8.62821 117.24 8.39108 117.64 8.23159C118.041 8.07209 118.469 7.99341 118.9 8.00002ZM119.13 17.63C121.46 17.63 121.7 17.78 121.7 18.22V37.86C121.7 38.29 121.46 38.45 119.13 38.45H118.94C116.37 38.45 116.29 38.29 116.29 37.86V18.22C116.29 17.78 116.37 17.63 118.94 17.63H119.13Z" fill="#17358A"/>
<path d="M126.93 17.6601C128.87 17.6601 129.22 17.7401 129.38 18.1701C129.515 18.6886 129.608 19.2168 129.66 19.75C130.379 18.9516 131.26 18.3163 132.245 17.8869C133.23 17.4574 134.296 17.2437 135.37 17.26C136.384 17.2023 137.399 17.3625 138.346 17.7299C139.293 18.0973 140.15 18.6634 140.86 19.39C142.16 20.85 142.71 22.74 142.71 25.74V37.89C142.71 38.32 142.47 38.48 140.14 38.48H140C137.44 38.48 137.36 38.32 137.36 37.89V27.24C137.36 24.52 137.2 23.69 136.57 22.98C136.215 22.6568 135.798 22.4093 135.344 22.2528C134.89 22.0964 134.409 22.0341 133.93 22.07C133.007 22.0505 132.095 22.2674 131.28 22.7C130.926 22.9179 130.638 23.227 130.444 23.5946C130.251 23.9623 130.159 24.3751 130.18 24.7901C130.1 25.7001 130.1 27.1601 130.1 28.6601V37.89C130.1 38.32 129.86 38.48 127.54 38.48H127.34C124.78 38.48 124.7 38.32 124.7 37.89V27C124.7 23.93 124.58 20.5 124.42 18.37C124.42 17.81 124.54 17.6601 126.79 17.6601H126.93Z" fill="#17358A"/>
<path d="M160.58 17.66C162.12 17.66 162.44 17.66 162.58 18.13C162.94 19.13 162.94 23.02 162.94 26.45V36.78C162.94 40.61 162.11 43.3301 160.53 45.0601C158.95 46.7901 156.53 47.67 153.32 47.67C151.026 47.6601 148.767 47.1048 146.73 46.05C146.34 45.81 146.22 45.54 146.85 44.05L147.13 43.38C147.68 42.08 147.91 41.76 148.35 41.96C149.806 42.6516 151.389 43.0395 153 43.1C155.92 43.1 157.54 41.6 157.54 37.38V36.79C156.137 37.9572 154.365 38.5879 152.54 38.5699C147.37 38.5699 144.18 34.7 144.18 28.23C144.18 21.23 147.85 17.23 152.82 17.23C153.816 17.2496 154.797 17.4778 155.7 17.8998C156.602 18.3218 157.406 18.9282 158.06 19.6801C158.128 19.1331 158.235 18.5918 158.38 18.0601C158.49 17.7801 158.49 17.63 160.23 17.63L160.58 17.66ZM157.58 24.3199C157.264 23.6255 156.761 23.033 156.127 22.609C155.492 22.185 154.752 21.9465 153.99 21.92C151.35 21.92 149.73 23.92 149.73 28.22C149.73 32.01 151.19 33.98 154.07 33.98C155.159 34.0309 156.229 33.6744 157.07 32.98C157.527 32.3698 157.727 31.6058 157.63 30.85L157.58 24.3199Z" fill="#17358A"/>
<path d="M178.22 18.17C178.22 17.81 178.42 17.66 180.55 17.66H180.79C182.79 17.66 183.07 17.7699 183.07 18.2099C183.07 19.5099 182.99 23.49 182.99 26.73V29.13C182.99 32.21 183.11 35.64 183.27 37.77C183.27 38.32 183.27 38.48 181.02 38.48H180.82C178.89 38.48 178.58 38.3999 178.42 37.9699C178.284 37.5332 178.19 37.0846 178.14 36.63C177.432 37.3409 176.59 37.9047 175.664 38.2892C174.737 38.6736 173.743 38.871 172.74 38.87C167.57 38.87 164.38 34.9299 164.38 28.4599C164.38 21.2799 168.38 17.26 173.1 17.26C174.057 17.2354 175.006 17.433 175.874 17.8373C176.741 18.2415 177.503 18.8414 178.1 19.5899L178.22 18.17ZM177.59 23.85C177.219 23.2751 176.712 22.8008 176.114 22.4693C175.515 22.1378 174.844 21.9594 174.16 21.9499C171.28 21.9499 169.94 24.24 169.94 28.3C169.94 31.81 170.89 34.3 174.08 34.3C174.637 34.3326 175.194 34.2429 175.712 34.0373C176.23 33.8318 176.697 33.5152 177.08 33.11C177.508 32.4605 177.702 31.6846 177.63 30.91L177.59 23.85Z" fill="#17358A"/>
<path d="M33.65 13.58L27.98 23.41C27.9562 23.4469 27.943 23.4895 27.9417 23.5333C27.9405 23.5772 27.9512 23.6204 27.9729 23.6586C27.9945 23.6967 28.0262 23.7282 28.0645 23.7496C28.1028 23.771 28.1462 23.7816 28.19 23.78H39.54C39.5826 23.7785 39.6241 23.766 39.6605 23.7439C39.6969 23.7218 39.7271 23.6906 39.7481 23.6536C39.7692 23.6165 39.7804 23.5746 39.7807 23.532C39.7811 23.4894 39.7705 23.4474 39.75 23.41L34.07 13.58C34.0492 13.5424 34.0188 13.5113 33.9818 13.4895C33.9449 13.4677 33.9028 13.4562 33.86 13.4562C33.8171 13.4562 33.775 13.4677 33.7381 13.4895C33.7011 13.5113 33.6708 13.5424 33.65 13.58Z" fill="#80276C"/>
<path d="M19.79 13.58L14.11 23.41C14.0895 23.4474 14.0789 23.4894 14.0792 23.532C14.0795 23.5746 14.0908 23.6165 14.1118 23.6536C14.1329 23.6906 14.163 23.7218 14.1995 23.7439C14.2359 23.766 14.2774 23.7785 14.32 23.78H25.68C25.7226 23.7785 25.7641 23.766 25.8005 23.7439C25.837 23.7218 25.8671 23.6906 25.8882 23.6536C25.9092 23.6165 25.9205 23.5746 25.9208 23.532C25.9211 23.4894 25.9105 23.4474 25.89 23.41L20.21 13.58C20.1893 13.5424 20.1588 13.5113 20.1219 13.4895C20.085 13.4677 20.0429 13.4562 20 13.4562C19.9571 13.4562 19.9151 13.4677 19.8781 13.4895C19.8412 13.5113 19.8107 13.5424 19.79 13.58Z" fill="#17358A"/>
<path d="M47.51 13.58L41.84 23.41C41.8162 23.4469 41.803 23.4895 41.8017 23.5333C41.8005 23.5772 41.8113 23.6204 41.8329 23.6586C41.8546 23.6967 41.8862 23.7282 41.9245 23.7496C41.9627 23.771 42.0061 23.7816 42.05 23.78H53.4C53.4438 23.7816 53.4872 23.771 53.5255 23.7496C53.5638 23.7282 53.5954 23.6967 53.617 23.6586C53.6387 23.6204 53.6495 23.5772 53.6482 23.5333C53.647 23.4895 53.6337 23.4469 53.61 23.41L47.94 13.58C47.9178 13.5427 47.8864 13.5118 47.8487 13.4904C47.811 13.4689 47.7683 13.4575 47.725 13.4575C47.6816 13.4575 47.639 13.4689 47.6013 13.4904C47.5636 13.5118 47.5321 13.5427 47.51 13.58Z" fill="#97999B"/>
<path d="M26.73 22.9201L21.06 13.09C21.0388 13.0533 21.0277 13.0118 21.0278 12.9695C21.0279 12.9272 21.0392 12.8857 21.0605 12.8491C21.0819 12.8126 21.1124 12.7823 21.1492 12.7614C21.186 12.7405 21.2277 12.7296 21.27 12.73H32.62C32.6623 12.7296 32.704 12.7405 32.7408 12.7614C32.7776 12.7823 32.8081 12.8126 32.8295 12.8491C32.8508 12.8857 32.8621 12.9272 32.8622 12.9695C32.8623 13.0118 32.8512 13.0533 32.83 13.09L27.16 22.9201C27.1378 22.9574 27.1064 22.9882 27.0687 23.0097C27.031 23.0311 26.9884 23.0425 26.945 23.0425C26.9016 23.0425 26.859 23.0311 26.8213 23.0097C26.7836 22.9882 26.7521 22.9574 26.73 22.9201Z" fill="#1B85B7"/>
<path d="M12.8701 22.92L7.19008 13.0899C7.16842 13.0525 7.15723 13.0101 7.15773 12.9669C7.15824 12.9237 7.17042 12.8813 7.19295 12.8444C7.21548 12.8076 7.24757 12.7776 7.28578 12.7574C7.324 12.7372 7.3669 12.7277 7.41005 12.7299H18.7601C18.8024 12.7295 18.844 12.7404 18.8808 12.7613C18.9176 12.7822 18.9482 12.8125 18.9696 12.8491C18.9909 12.8856 19.0021 12.9271 19.0022 12.9694C19.0023 13.0117 18.9912 13.0533 18.97 13.0899L13.2901 22.92C13.2693 22.9575 13.2389 22.9887 13.202 23.0104C13.1651 23.0322 13.123 23.0438 13.0801 23.0438C13.0372 23.0438 12.9951 23.0322 12.9582 23.0104C12.9213 22.9887 12.8908 22.9575 12.8701 22.92Z" fill="#8CC7DF"/>
<path d="M40.59 22.9201L34.92 13.09C34.8988 13.0533 34.8877 13.0118 34.8878 12.9695C34.8879 12.9272 34.8992 12.8857 34.9205 12.8491C34.9419 12.8126 34.9724 12.7823 35.0092 12.7614C35.046 12.7405 35.0877 12.7296 35.13 12.73H46.48C46.5223 12.7296 46.564 12.7405 46.6008 12.7614C46.6376 12.7823 46.6681 12.8126 46.6895 12.8491C46.7108 12.8857 46.7221 12.9272 46.7222 12.9695C46.7223 13.0118 46.7112 13.0533 46.69 13.09L41.02 22.9201C40.9979 22.9574 40.9664 22.9882 40.9287 23.0097C40.891 23.0311 40.8484 23.0425 40.805 23.0425C40.7616 23.0425 40.719 23.0311 40.6813 23.0097C40.6436 22.9882 40.6122 22.9574 40.59 22.9201Z" fill="#D0146F"/>
<path d="M26.72 1.56006L21.0501 11.39C21.0296 11.4274 21.019 11.4693 21.0193 11.512C21.0196 11.5546 21.0308 11.5965 21.0519 11.6335C21.0729 11.6706 21.1031 11.7017 21.1395 11.7239C21.176 11.746 21.2175 11.7584 21.2601 11.76H32.6101C32.6539 11.7615 32.6973 11.751 32.7355 11.7296C32.7738 11.7082 32.8055 11.6767 32.8272 11.6385C32.8488 11.6004 32.8596 11.5571 32.8583 11.5133C32.8571 11.4695 32.8439 11.4269 32.8201 11.39L27.1501 1.56006C27.128 1.52275 27.0965 1.4918 27.0588 1.47034C27.0211 1.44887 26.9784 1.43762 26.9351 1.43762C26.8917 1.43762 26.849 1.44887 26.8113 1.47034C26.7737 1.4918 26.7422 1.52275 26.72 1.56006Z" fill="#97999B"/>
<path d="M12.86 1.56006L7.18998 11.39C7.1662 11.4269 7.15296 11.4695 7.15171 11.5133C7.15046 11.5571 7.16125 11.6004 7.1829 11.6385C7.20454 11.6767 7.23624 11.7082 7.27451 11.7296C7.31278 11.751 7.35618 11.7615 7.4 11.76H18.75C18.7938 11.7615 18.8372 11.751 18.8755 11.7296C18.9137 11.7082 18.9454 11.6767 18.9671 11.6385C18.9887 11.6004 18.9995 11.5571 18.9982 11.5133C18.997 11.4695 18.9838 11.4269 18.96 11.39L13.29 1.56006C13.2678 1.52275 13.2364 1.4918 13.1987 1.47034C13.161 1.44887 13.1184 1.43762 13.075 1.43762C13.0316 1.43762 12.989 1.44887 12.9513 1.47034C12.9136 1.4918 12.8821 1.52275 12.86 1.56006Z" fill="#80276C"/>
<path d="M33.6699 10.91L27.9899 1.07996C27.969 1.04183 27.9585 0.999016 27.9593 0.955567C27.96 0.912118 27.9722 0.869628 27.9944 0.832276C28.0166 0.794924 28.0481 0.763989 28.0859 0.742555C28.1237 0.72112 28.1665 0.709843 28.2099 0.709962H39.5599C39.6025 0.711535 39.644 0.723966 39.6805 0.746095C39.7169 0.768223 39.7471 0.79935 39.7681 0.836427C39.7892 0.873504 39.8004 0.915377 39.8007 0.958009C39.801 1.00064 39.7904 1.04257 39.7699 1.07996L34.0899 10.91C34.0692 10.9475 34.0387 10.9788 34.0018 11.0006C33.9649 11.0224 33.9228 11.0338 33.8799 11.0338C33.8371 11.0338 33.795 11.0224 33.758 11.0006C33.7211 10.9788 33.6907 10.9475 33.6699 10.91Z" fill="#8CC7DF"/>
<path d="M33.65 34.94L27.98 25.11C27.9562 25.0732 27.943 25.0305 27.9417 24.9867C27.9405 24.9429 27.9512 24.8996 27.9729 24.8615C27.9945 24.8233 28.0262 24.7918 28.0645 24.7704C28.1028 24.749 28.1462 24.7385 28.19 24.74H39.54C39.5826 24.7416 39.6241 24.754 39.6605 24.7761C39.6969 24.7983 39.7271 24.8294 39.7481 24.8665C39.7692 24.9036 39.7804 24.9454 39.7807 24.9881C39.7811 25.0307 39.7705 25.0726 39.75 25.11L34.07 34.94C34.0492 34.9775 34.0188 35.0088 33.9818 35.0305C33.9449 35.0523 33.9028 35.0639 33.86 35.0639C33.8171 35.0639 33.775 35.0523 33.7381 35.0305C33.7011 35.0088 33.6708 34.9775 33.65 34.94Z" fill="#8CC7DF"/>
<path d="M19.79 34.9399L14.11 25.11C14.0895 25.0726 14.0789 25.0307 14.0792 24.988C14.0795 24.9454 14.0908 24.9035 14.1118 24.8665C14.1329 24.8294 14.163 24.7983 14.1995 24.7761C14.2359 24.754 14.2774 24.7416 14.32 24.74H25.68C25.7226 24.7416 25.7641 24.754 25.8005 24.7761C25.837 24.7983 25.8671 24.8294 25.8882 24.8665C25.9092 24.9035 25.9205 24.9454 25.9208 24.988C25.9211 25.0307 25.9105 25.0726 25.89 25.11L20.21 34.9399C20.1893 34.9775 20.1588 35.0087 20.1219 35.0305C20.085 35.0523 20.0429 35.0638 20 35.0638C19.9571 35.0638 19.9151 35.0523 19.8781 35.0305C19.8412 35.0087 19.8107 34.9775 19.79 34.9399Z" fill="#D0146F"/>
<path d="M5.93 34.9399L0.250007 25.11C0.229514 25.0726 0.21893 25.0307 0.219245 24.988C0.219561 24.9454 0.230794 24.9035 0.251838 24.8665C0.272882 24.8294 0.303044 24.7983 0.339484 24.7761C0.375925 24.754 0.417425 24.7416 0.460029 24.74H11.81C11.8535 24.7399 11.8962 24.7511 11.934 24.7726C11.9718 24.794 12.0034 24.8248 12.0256 24.8622C12.0478 24.8995 12.0599 24.942 12.0607 24.9855C12.0615 25.0289 12.0509 25.0719 12.03 25.11L6.34998 34.9399C6.32923 34.9775 6.29884 35.0087 6.26191 35.0305C6.22498 35.0523 6.18289 35.0638 6.14002 35.0638C6.09715 35.0638 6.05506 35.0523 6.01813 35.0305C5.9812 35.0087 5.95075 34.9775 5.93 34.9399Z" fill="#1B85B7"/>
<path d="M26.72 25.6L21.05 35.4301C21.0288 35.4667 21.0177 35.5082 21.0178 35.5505C21.0179 35.5928 21.0292 35.6343 21.0505 35.6709C21.0719 35.7074 21.1024 35.7378 21.1392 35.7587C21.176 35.7796 21.2177 35.7904 21.26 35.79H32.61C32.6523 35.7904 32.694 35.7796 32.7308 35.7587C32.7676 35.7378 32.7981 35.7074 32.8195 35.6709C32.8408 35.6343 32.8521 35.5928 32.8522 35.5505C32.8523 35.5082 32.8412 35.4667 32.82 35.4301L27.15 25.6C27.1279 25.5627 27.0964 25.5318 27.0587 25.5104C27.021 25.4889 26.9784 25.4775 26.935 25.4775C26.8916 25.4775 26.849 25.4889 26.8113 25.5104C26.7736 25.5318 26.7421 25.5627 26.72 25.6Z" fill="#97999B"/>
<path d="M12.86 25.6L7.19 35.4301C7.16884 35.4667 7.15774 35.5082 7.15784 35.5505C7.15793 35.5928 7.16923 35.6343 7.19055 35.6709C7.21187 35.7074 7.24245 35.7378 7.27924 35.7587C7.31602 35.7796 7.35771 35.7904 7.40002 35.79H18.75C18.7923 35.7904 18.8339 35.7796 18.8707 35.7587C18.9075 35.7378 18.9382 35.7074 18.9595 35.6709C18.9808 35.6343 18.9921 35.5928 18.9922 35.5505C18.9923 35.5082 18.9812 35.4667 18.96 35.4301L13.28 25.6C13.2593 25.5625 13.2288 25.5312 13.1919 25.5094C13.155 25.4876 13.1129 25.4762 13.07 25.4762C13.0271 25.4762 12.9851 25.4876 12.9481 25.5094C12.9112 25.5312 12.8807 25.5625 12.86 25.6Z" fill="#80276C"/>
<path d="M40.5901 25.6L34.91 35.4301C34.8889 35.4667 34.8778 35.5082 34.8779 35.5505C34.878 35.5928 34.8893 35.6343 34.9106 35.6709C34.9319 35.7074 34.9625 35.7378 34.9993 35.7587C35.0361 35.7796 35.0777 35.7904 35.1201 35.79H46.47C46.5132 35.7923 46.5561 35.7827 46.5944 35.7626C46.6326 35.7424 46.6647 35.7123 46.6872 35.6754C46.7097 35.6385 46.7219 35.5963 46.7224 35.5531C46.7229 35.5099 46.7117 35.4674 46.6901 35.4301L41.0001 25.6C40.9793 25.5625 40.9489 25.5312 40.9119 25.5094C40.875 25.4876 40.8329 25.4762 40.79 25.4762C40.7472 25.4762 40.7051 25.4876 40.6682 25.5094C40.6312 25.5312 40.6008 25.5625 40.5801 25.6" fill="#17358A"/>
<path d="M40.59 47L34.92 37.1701C34.8988 37.1334 34.8877 37.0918 34.8878 37.0494C34.8879 37.0071 34.8992 36.9656 34.9205 36.9291C34.9419 36.8925 34.9724 36.8622 35.0092 36.8413C35.046 36.8204 35.0877 36.8097 35.13 36.8101H46.48C46.5223 36.8097 46.564 36.8204 46.6008 36.8413C46.6376 36.8622 46.6681 36.8925 46.6895 36.9291C46.7108 36.9656 46.7221 37.0071 46.7222 37.0494C46.7223 37.0918 46.7112 37.1334 46.69 37.1701L41 47C40.9779 47.0373 40.9464 47.0683 40.9087 47.0897C40.871 47.1112 40.8284 47.1224 40.785 47.1224C40.7416 47.1224 40.699 47.1112 40.6613 47.0897C40.6236 47.0683 40.5921 47.0373 40.57 47" fill="#D0146F"/>
<path d="M26.73 47L21.06 37.1701C21.0388 37.1334 21.0277 37.0918 21.0278 37.0494C21.0279 37.0071 21.0392 36.9656 21.0605 36.9291C21.0819 36.8925 21.1124 36.8622 21.1492 36.8413C21.186 36.8204 21.2277 36.8097 21.27 36.8101H32.62C32.6623 36.8097 32.704 36.8204 32.7408 36.8413C32.7776 36.8622 32.8081 36.8925 32.8295 36.9291C32.8508 36.9656 32.8621 37.0071 32.8622 37.0494C32.8623 37.0918 32.8512 37.1334 32.83 37.1701L27.16 47C27.1378 47.0373 27.1064 47.0683 27.0687 47.0897C27.031 47.1112 26.9884 47.1224 26.945 47.1224C26.9016 47.1224 26.859 47.1112 26.8213 47.0897C26.7836 47.0683 26.7521 47.0373 26.73 47Z" fill="#1B85B7"/>
<path d="M19.7999 37.61L14.1299 47.4399C14.1061 47.4768 14.0929 47.5195 14.0916 47.5634C14.0904 47.6072 14.1012 47.6505 14.1228 47.6886C14.1445 47.7267 14.1762 47.7583 14.2145 47.7797C14.2527 47.8011 14.2961 47.8116 14.3399 47.8101H25.6899C25.7337 47.8116 25.7771 47.8011 25.8154 47.7797C25.8537 47.7583 25.8854 47.7267 25.907 47.6886C25.9287 47.6505 25.9394 47.6072 25.9381 47.5634C25.9369 47.5195 25.9237 47.4768 25.8999 47.4399L20.2299 37.61C20.2078 37.5727 20.1763 37.5419 20.1386 37.5204C20.101 37.4989 20.0583 37.4875 20.0149 37.4875C19.9715 37.4875 19.9289 37.4989 19.8912 37.5204C19.8535 37.5419 19.822 37.5727 19.7999 37.61Z" fill="#17358A"/>
</svg>
